<?xml version="1.0" encoding="utf-8"?>
<!-- Generator: Adobe Illustrator 27.7.0, SVG Export Plug-In . SVG Version: 6.00 Build 0)  -->
<svg version="1.1" id="Layer_1" xmlns="http://www.w3.org/2000/svg" xmlns:xlink="http://www.w3.org/1999/xlink" x="0px" y="0px"
	 viewBox="0 0 800 800" style="enable-background:new 0 0 800 800;" xml:space="preserve">
<style type="text/css">
	.st0{fill:none;}
	.st1{fill:#C2791B;}
	.st2{fill:#00305F;}
</style>
<g id="Layer_1_00000133527884673202798990000014008209372178244231_">
	<rect x="2" y="2" class="st0" width="796.1" height="796.1"/>
</g>
<g id="Layer_3">
	<circle class="st1" cx="400" cy="400" r="239.5"/>
	
		<ellipse transform="matrix(4.361939e-02 -0.999 0.999 4.361939e-02 -60.66 636.4445)" class="st2" cx="302.1" cy="349.9" rx="37" ry="23.5"/>
	<circle class="st0" cx="313.6" cy="334.7" r="6.5"/>
	
		<ellipse transform="matrix(0.999 -4.361939e-02 4.361939e-02 0.999 -14.7759 22.0579)" class="st2" cx="498.1" cy="349.6" rx="23.5" ry="37"/>
	<circle class="st0" cx="505.9" cy="334.7" r="6.5"/>
	<path class="st2" d="M505.9,513c-3.5,0-6.8-1.5-9-4.2c-12.6-15-27.3-26.7-43.7-34.9c-16.4-8.2-34.7-12.6-53.1-12.6
		c-35.7,0-69.5,16.2-95.2,45.7c-4.2,4.9-11.6,5.4-16.5,1.2s-5.4-11.6-1.2-16.5c14.6-16.8,31.6-30,50.5-39.2
		c39.7-19.6,86.4-19.3,125.9,0.6c19.2,9.6,36.4,23.3,51.1,40.8c4.2,4.9,3.6,12.3-1.3,16.4C511.4,512,508.7,513,505.9,513z"/>
</g>
</svg>
