<?xml version="1.0" ?>

<!-- Uploaded to: SVG Repo, www.svgrepo.com, Generator: SVG Repo Mixer Tools -->
<svg width="800px" height="800px" viewBox="0 0 2050 2050" xmlns="http://www.w3.org/2000/svg">

<defs>

<style>.cls-1{fill:none;}.cls-2{fill:#c2791b;}.cls-3{fill:#ff9f1e;}.cls-4{fill:#00305f;}.cls-5{fill:#ffe059;}</style>

</defs>

<title/>

<g data-name="Layer 1" id="Layer_1">

<rect class="cls-1" height="2040" width="2040" x="5" y="5"/>

</g>

<g data-name="Layer 3" id="Layer_3">

<circle class="cls-2" cx="1025" cy="1025" r="613.7"/>

<ellipse class="cls-4" cx="773.9" cy="896.3" rx="94.9" ry="60.2" transform="translate(-155.1 1630.7) rotate(-87.5)"/>

<circle class="cls-1" cx="803.6" cy="857.7" r="16.6"/>

<ellipse class="cls-4" cx="1276.1" cy="896.3" rx="60.2" ry="94.9" transform="translate(-37.7 56.1) rotate(-2.5)"/>

<circle class="cls-1" cx="1296.4" cy="857.7" r="16.6"/>

<path class="cls-4" d="M1296.4,1314.5a29.7,29.7,0,0,1-23-10.7c-32.3-38.4-70-68.5-112-89.5s-88.8-32.4-136-32.4c-91.6,0-178.2,41.6-243.9,117.1a30,30,0,0,1-45.3-39.4c37.5-43,81-76.8,129.5-100.5a361.4,361.4,0,0,1,322.6,1.6c49.3,24.7,93.4,59.8,131,104.5a29.9,29.9,0,0,1-22.9,49.3Z"/>

</g>

</svg>